<?xml version="1.0" ?><svg height="612" id="svg2437" version="1.0" width="612" xmlns="http://www.w3.org/2000/svg" xmlns:cc="http://creativecommons.org/ns#" xmlns:dc="http://purl.org/dc/elements/1.1/" xmlns:inkscape="http://www.inkscape.org/namespaces/inkscape" xmlns:rdf="http://www.w3.org/1999/02/22-rdf-syntax-ns#" xmlns:sodipodi="http://sodipodi.sourceforge.net/DTD/sodipodi-0.dtd" xmlns:svg="http://www.w3.org/2000/svg"><defs id="defs2439"><marker id="ArrowEnd" markerHeight="3" markerUnits="strokeWidth" markerWidth="4" orient="auto" refX="0" refY="5" viewBox="0 0 10 10"><path d="M 0,0 L 10,5 L 0,10 L 0,0 z" id="path2442"/></marker><marker id="ArrowStart" markerHeight="3" markerUnits="strokeWidth" markerWidth="4" orient="auto" refX="10" refY="5" viewBox="0 0 10 10"><path d="M 10,0 L 0,5 L 10,10 L 10,0 z" id="path2445"/></marker></defs><g id="g9354" transform="translate(-8.19e-2,-0.5853944)"><g id="g2447"><path d="M 82.4318,17.9239 C 41.0968,17.9239 17.8608,39.2949 17.8608,82.9599 L 17.8608,533.082 C 17.8608,573.925 38.7518,595.31 80.0528,595.31 L 532.077,595.31 C 573.38,595.31 594.303,574.99 594.303,533.082 L 594.303,82.9599 C 594.303,40.3599 573.38,17.9239 530.78,17.9239 C 530.78,17.9239 82.2888,17.7819 82.4318,17.9239 z" id="path2449" style="fill:#da5726;stroke:#ffffff;stroke-width:3.40799999"/></g><g id="g2451"><g id="g2453"><path d="M 300.803,131.26 C 323.354,131.26 341.638,112.976 341.638,90.4239 C 341.638,67.8729 323.354,49.5899 300.803,49.5899 C 278.251,49.5899 259.969,67.8729 259.969,90.4239 C 259.969,112.976 278.251,131.26 300.803,131.26 z" id="path2455" style="fill:#ffffff;stroke:none"/><path id="path2457" style="fill:#ffffff;stroke:none"/></g><path d="M 257.105,140.273 C 228.187,140.273 204.932,163.857 204.932,193.273 L 204.932,318.648 C 204.932,343.023 240.605,343.023 240.605,318.648 L 240.605,204.006 L 249.049,204.006 L 249.049,517.913 C 249.049,550.502 296.552,549.543 296.552,517.913 L 296.552,335.693 L 304.734,335.693 L 304.734,517.913 C 304.734,549.543 352.499,550.502 352.499,517.913 L 352.499,204.006 L 360.746,204.006 L 360.746,318.648 C 360.746,343.21 396.233,343.21 396.168,318.648 L 396.168,194.023 C 396.168,166.898 375.104,140.329 343.354,140.329 L 257.105,140.273 z" id="path2459" style="fill:#ffffff;stroke:none"/></g></g></svg>
