<?xml version="1.0" ?><svg height="612" id="svg2489" version="1.0" width="612" xmlns="http://www.w3.org/2000/svg" xmlns:cc="http://creativecommons.org/ns#" xmlns:dc="http://purl.org/dc/elements/1.1/" xmlns:inkscape="http://www.inkscape.org/namespaces/inkscape" xmlns:rdf="http://www.w3.org/1999/02/22-rdf-syntax-ns#" xmlns:sodipodi="http://sodipodi.sourceforge.net/DTD/sodipodi-0.dtd" xmlns:svg="http://www.w3.org/2000/svg"><defs id="defs2491"><marker id="ArrowEnd" markerHeight="3" markerUnits="strokeWidth" markerWidth="4" orient="auto" refX="0" refY="5" viewBox="0 0 10 10"><path d="M 0,0 L 10,5 L 0,10 L 0,0 z" id="path2494"/></marker><marker id="ArrowStart" markerHeight="3" markerUnits="strokeWidth" markerWidth="4" orient="auto" refX="10" refY="5" viewBox="0 0 10 10"><path d="M 10,0 L 0,5 L 10,10 L 10,0 z" id="path2497"/></marker></defs><g id="g2499" transform="translate(-8.29e-2,-0.5853944)"><path d="M 82.4318,17.9239 C 41.0968,17.9239 17.8608,39.2949 17.8608,82.9599 L 17.8608,533.082 C 17.8608,573.925 38.7518,595.31 80.0528,595.31 L 532.079,595.31 C 573.382,595.31 594.305,574.99 594.305,533.082 L 594.305,82.9599 C 594.305,40.3599 573.382,17.9239 530.782,17.9239 C 530.782,17.9239 82.2888,17.7819 82.4318,17.9239 z" id="path2501" style="fill:#da5726;stroke:#ffffff;stroke-width:3.40799999"/><g id="g2503"><g id="g2505"><path d="M 307.733,137.471 C 329.835,137.471 347.751,119.555 347.751,97.4529 C 347.751,75.3539 329.835,57.4359 307.733,57.4359 C 285.634,57.4359 267.716,75.3539 267.716,97.4529 C 267.716,119.555 285.634,137.471 307.733,137.471 z" id="path2507" style="fill:#ffffff;stroke:none"/><path id="path2509" style="fill:#ffffff;stroke:none"/></g><path d="M 301.816,391.347 L 301.832,529.951 C 301.832,555.136 264.098,555.136 264.098,529.951 L 264.082,392.306 L 213.412,392.306 L 267.582,204.359 L 259.172,204.359 L 227.662,310.386 C 220.162,333.511 188.412,324.011 195.676,299.248 L 230.662,184.059 C 234.412,170.923 251.025,147.636 279.78,147.636 L 306.295,147.636 L 306.295,147.636 L 334.832,147.636 C 363.332,147.636 380.019,171.119 384.332,184.059 L 419.332,299.136 C 426.332,323.886 394.832,334.136 387.332,310.011 L 355.832,204.359 L 346.726,204.359 L 401.332,392.306 L 350.582,392.306 L 350.582,530.136 C 350.582,555.136 313.005,555.011 313.005,530.136 L 313.005,391.347 L 301.816,391.347 z" id="path2511" style="fill:#ffffff;stroke:none"/></g></g></svg>